/* XPM */
static char *acknowledged[] = {
/* columns rows colors chars-per-pixel */
"24 24 218 2 ",
"   c black",
".  c #000000",
"X  c #000000",
"o  c #000000",
"O  c #000000",
"+  c #000000",
"@  c #000000",
"#  c #010101",
"$  c #010101",
"%  c #010101",
"&  c #010101",
"*  c #010101",
"=  c #010101",
"-  c #020202",
";  c #090909",
":  c #090909",
">  c #0A0A0A",
",  c #0B0B0B",
"<  c #0D0D0D",
"1  c #0D0D0D",
"2  c #0E0E0E",
"3  c #0E0E0E",
"4  c #0E0E0E",
"5  c #0F0F0F",
"6  c #111111",
"7  c #111111",
"8  c #121212",
"9  c #121212",
"0  c #131313",
"q  c #131313",
"w  c #131313",
"e  c #141414",
"r  c #151515",
"t  c #161616",
"y  c #161616",
"u  c #161616",
"i  c #171717",
"p  c #181818",
"a  c #191919",
"s  c #1A1A1A",
"d  c #1A1A1A",
"f  c #1D1D1D",
"g  c #1D1D1D",
"h  c #1E1E1E",
"j  c #202020",
"k  c #202020",
"l  c #202020",
"z  c #212121",
"x  c #212121",
"c  c #222222",
"v  c #222222",
"b  c #252525",
"n  c #252525",
"m  c #262626",
"M  c #272727",
"N  c #282828",
"B  c #282828",
"V  c #282828",
"C  c #292929",
"Z  c #292929",
"A  c #2A2A2A",
"S  c #2C2C2C",
"D  c #2D2D2D",
"F  c #2E2E2E",
"G  c #2F2F2F",
"H  c #303030",
"J  c #313131",
"K  c #313131",
"L  c #323232",
"P  c #343434",
"I  c #373737",
"U  c #3B3B3B",
"Y  c #3E3E3E",
"T  c #3E3E3E",
"R  c #4A4A4A",
"E  c #4E4E4E",
"W  c #4E4E4E",
"Q  c #5B5B5B",
"!  c #5D5D5D",
"~  c #5F5F5F",
"^  c #636363",
"/  c #686868",
"(  c #696969",
")  c #6B6B6B",
"_  c #6E6E6E",
"`  c #707070",
"'  c #707070",
"]  c #727272",
"[  c #747474",
"{  c #747474",
"}  c #757575",
"|  c #767676",
" . c #767676",
".. c #777777",
"X. c #787878",
"o. c #787878",
"O. c #787878",
"+. c #797979",
"@. c #797979",
"#. c #797979",
"$. c #7B7B7B",
"%. c #7C7C7C",
"&. c #7E7E7E",
"*. c #7E7E7E",
"=. c #808080",
"-. c #838383",
";. c #838383",
":. c #848484",
">. c #858585",
",. c #858585",
"<. c #868686",
"1. c #888888",
"2. c #888888",
"3. c #898989",
"4. c #8A8A8A",
"5. c #8F8F8F",
"6. c #909090",
"7. c #909090",
"8. c #929292",
"9. c #959595",
"0. c #969696",
"q. c #969696",
"w. c #989898",
"e. c #999999",
"r. c #9C9C9C",
"t. c #9D9D9D",
"y. c #9E9E9E",
"u. c #A8A8A8",
"i. c #AAAAAA",
"p. c #AAAAAA",
"a. c #ACACAC",
"s. c #ACACAC",
"d. c #ADADAD",
"f. c #AFAFAF",
"g. c #B0B0B0",
"h. c #B1B1B1",
"j. c #B1B1B1",
"k. c #B2B2B2",
"l. c #B2B2B2",
"z. c #B3B3B3",
"x. c #B4B4B4",
"c. c #B4B4B4",
"v. c #B5B5B5",
"b. c #B5B5B5",
"n. c #B6B6B6",
"m. c #B7B7B7",
"M. c #B9B9B9",
"N. c #BABABA",
"B. c #BBBBBB",
"V. c #BDBDBD",
"C. c #BEBEBE",
"Z. c #BEBEBE",
"A. c #BFBFBF",
"S. c #BFBFBF",
"D. c #BFBFBF",
"F. c #BFBFBF",
"G. c #C0C0C0",
"H. c #C1C1C1",
"J. c #C1C1C1",
"K. c #C1C1C1",
"L. c #C1C1C1",
"P. c #C2C2C2",
"I. c #C3C3C3",
"U. c #C3C3C3",
"Y. c #C3C3C3",
"T. c #C4C4C4",
"R. c #C4C4C4",
"E. c #C4C4C4",
"W. c #C5C5C5",
"Q. c #C7C7C7",
"!. c #C8C8C8",
"~. c #C8C8C8",
"^. c #C8C8C8",
"/. c #C9C9C9",
"(. c #CACACA",
"). c #CACACA",
"_. c #CACACA",
"`. c #CACACA",
"'. c #CCCCCC",
"]. c #D3D3D3",
"[. c #D5D5D5",
"{. c #D5D5D5",
"}. c #D6D6D6",
"|. c #D8D8D8",
" X c #D9D9D9",
".X c #D9D9D9",
"XX c #DADADA",
"oX c #DBDBDB",
"OX c #DEDEDE",
"+X c #DFDFDF",
"@X c #E1E1E1",
"#X c #E2E2E2",
"$X c #E4E4E4",
"%X c #E6E6E6",
"&X c #E7E7E7",
"*X c #F3F3F3",
"=X c #F5F5F5",
"-X c #F6F6F6",
";X c #F7F7F7",
":X c #F8F8F8",
">X c #F8F8F8",
",X c #F8F8F8",
"<X c #F8F8F8",
"1X c #F9F9F9",
"2X c #F9F9F9",
"3X c #F9F9F9",
"4X c #F9F9F9",
"5X c #FBFBFB",
"6X c #FBFBFB",
"7X c #FBFBFB",
"8X c #FCFCFC",
"9X c #FCFCFC",
"0X c #FDFDFD",
"qX c #FDFDFD",
"wX c #FEFEFE",
"eX c #FEFEFE",
"rX c #FFFFFF",
"tX c white",
/* pixels */
"                                                ",
"                                                ",
"                                                ",
"                                                ",
"                                                ",
"            . < L Q #.3.4.$.! P 3 X             ",
"        @ l | J.OX,XtXtXtXtX5X@XU.@.c %         ",
"      2 _ [._.;.g.4XtXtXtXtXqXI.2.Q.}.` 4       ",
"    x p.oX' y { :X9X!.1.:.V.3X8X6.s ) |.s.v     ",
"  M P.S.J   G $XrXw.I e   1 *.2X*XR   D M.T.C   ",
"h B.b.f      .tX`.E  Xl.5   , z.tXe.+   a h.C.z ",
"a.^.k     o t.tX7.U &XF.8     [ tXZ.;     g E.k.",
"c.R.d     O y.tX8.- F j       ] tXD.:     p H.N.",
"b Y.d.i     O.tX/.t         > f.tXr.&   r u.W.m ",
"  S ~.n.V   K %XwX5.7     > } ;X=XW   n j.'.H   ",
"    B v.{.^ 6 ..1X7XG.&.X.x.-XeXq.u ~ ].m.A     ",
"      9 +..XK.o.i.<XtXtXtXtX0XL.=.A.XX%.w       ",
"        * N -.).+X>XtXtXtXtX6X#X(.>.Z =         ",
"            # 0 Y / ,.9.0.<.( T q $             ",
"                                                ",
"                                                ",
"                                                ",
"                                                ",
"                                                "
};
