/* XPM */
static char *green[] = {
/* columns rows colors chars-per-pixel */
"30 30 219 2 ",
"   c #ECA500",
".  c #EDA600",
"X  c #EEA700",
"o  c #EFA700",
"O  c #EEA701",
"+  c #EEA702",
"@  c #EFA800",
"#  c #EFA801",
"$  c #EEA803",
"%  c #EFA903",
"&  c #EFAA04",
"*  c #EFAA05",
"=  c #EFAB05",
"-  c #F0A800",
";  c #F0A900",
":  c #F1A900",
">  c #F1A901",
",  c #F2AA00",
"<  c #F3AA00",
"1  c #F3AB00",
"2  c #F3AB01",
"3  c #F0A902",
"4  c #F4AB00",
"5  c #F4AB01",
"6  c #F5AC00",
"7  c #F5AC01",
"8  c #F6AC00",
"9  c #F6AD00",
"0  c #F7AD00",
"q  c #F6AC01",
"w  c #F6AD01",
"e  c #F4AC02",
"r  c #F4AD03",
"t  c #F6AE02",
"y  c #F0AB04",
"u  c #F0AB06",
"i  c #F0AC06",
"p  c #F0AC07",
"a  c #F0AD07",
"s  c #F1AD07",
"d  c #F4AD04",
"f  c #F5AE04",
"g  c #F4AE05",
"h  c #F5AF05",
"j  c #F4AF06",
"k  c #F8AE00",
"l  c #F9AE00",
"z  c #F9AF00",
"x  c #F8AF01",
"c  c #FAAF00",
"v  c #F1AD08",
"b  c #F1AE09",
"n  c #F1AF09",
"m  c #F2AE08",
"M  c #F1AF0A",
"N  c #F2AF0A",
"B  c #F4AF08",
"V  c #F5B006",
"C  c #F9B001",
"Z  c #FAB000",
"A  c #FBB000",
"S  c #FBB001",
"D  c #FBB101",
"F  c #FCB101",
"G  c #FDB200",
"H  c #FCB201",
"J  c #FEB301",
"K  c #FCB202",
"L  c #FFB401",
"P  c #FFB402",
"I  c #FFB502",
"U  c #FEB403",
"Y  c #F9B104",
"T  c #F8B105",
"R  c #FAB204",
"E  c #FBB204",
"W  c #F8B106",
"Q  c #FFB504",
"!  c #FFB605",
"~  c #FDB607",
"^  c #FFB606",
"/  c #FFB706",
"(  c #FEB707",
")  c #FFB707",
"_  c #F4B009",
"`  c #F5B109",
"'  c #F4B00A",
"]  c #F4B10A",
"[  c #F6B30B",
"{  c #F2B10C",
"}  c #F3B10C",
"|  c #F3B10D",
" . c #F3B20C",
".. c #F3B20D",
"X. c #F3B20E",
"o. c #F3B30E",
"O. c #F4B20C",
"+. c #F5B30D",
"@. c #F6B30C",
"#. c #F4B30E",
"$. c #F4B30F",
"%. c #F4B40F",
"&. c #F9B308",
"*. c #FAB408",
"=. c #FDB708",
"-. c #FEB708",
";. c #FFB708",
":. c #F9B50C",
">. c #FAB70D",
",. c #FFB808",
"<. c #FFB809",
"1. c #FDB80B",
"2. c #FFB90A",
"3. c #FFB90B",
"4. c #FFBA0B",
"5. c #FBB90F",
"6. c #FDB90D",
"7. c #FFBA0C",
"8. c #FEBA0D",
"9. c #FFBA0D",
"0. c #FFBB0D",
"q. c #FEBB0E",
"w. c #FFBB0E",
"e. c #FFBB0F",
"r. c #FFBC0F",
"t. c #F4B410",
"y. c #F5B510",
"u. c #F4B511",
"i. c #F5B511",
"p. c #F7B711",
"a. c #F6B712",
"s. c #F6B713",
"d. c #F6B814",
"f. c #F7B914",
"g. c #F7B915",
"h. c #F7BA15",
"j. c #F7BA16",
"k. c #F7BA17",
"l. c #F7BB17",
"z. c #F9B810",
"x. c #F8B812",
"c. c #FABA12",
"v. c #FBBB13",
"b. c #FFBC10",
"n. c #FFBD12",
"m. c #FEBD13",
"M. c #FFBE12",
"N. c #FFBE13",
"B. c #F9BC17",
"V. c #FABD17",
"C. c #FCBD15",
"Z. c #FFBE14",
"A. c #FFBF14",
"S. c #FFBF15",
"D. c #FCBE17",
"F. c #F8BC18",
"G. c #F9BD19",
"H. c #F8BD1A",
"J. c #F9BD1A",
"K. c #F9BE1B",
"L. c #F9BF1B",
"P. c #F9BF1C",
"I. c #FABF1C",
"U. c #FFC016",
"Y. c #FEC017",
"T. c #FFC017",
"R. c #FFC117",
"E. c #FFC118",
"W. c #FFC119",
"Q. c #FDC11A",
"!. c #FFC21A",
"~. c #FFC21B",
"^. c #FFC31B",
"/. c #FAC01C",
"(. c #FAC01D",
"). c #FAC11D",
"_. c #FBC11D",
"`. c #FAC11E",
"'. c #FBC11F",
"]. c #FBC21F",
"[. c #FEC21C",
"{. c #FFC31C",
"}. c #FCC31E",
"|. c #FDC31E",
" X c #FFC41D",
".X c #FFC41E",
"XX c #FFC51F",
"oX c #FBC220",
"OX c #FBC320",
"+X c #FCC421",
"@X c #FFC520",
"#X c #FEC521",
"$X c #FFC620",
"%X c #FFC621",
"&X c #FCC422",
"*X c #FDC522",
"=X c #FCC523",
"-X c #FDC523",
";X c #FDC623",
":X c #FFC622",
">X c #FFC723",
",X c #FDC624",
"<X c #FDC724",
"1X c #FDC725",
"2X c #FEC725",
"3X c #FFC823",
"4X c #FFC824",
"5X c #FEC825",
"6X c #FFC825",
"7X c #FEC826",
"8X c #FEC926",
"9X c #FFC926",
"0X c #FEC927",
"qX c #FFC927",
"wX c #FFCA27",
"eX c #FFCA28",
"rX c #FFCA29",
"tX c #FFCB29",
"yX c None",
/* pixels */
"yXyXyXyXyXyXyXyXyXyXyXyXyXyXyXyXyXyXyXyXyXyXyXyXyXyXyXyXyXyX",
"yXyXyXyXyXyXyXyXyXyXyXyXyXv X.n yXyXyXyXyXyXyXyXyXyXyXyXyXyX",
"yXyXyXyXyXyXyXyXyXyXyXyX* `.qX<Xj.& yXyXyXyXyXyXyXyXyXyXyXyX",
"yXyXyXyXyXyXyXyXyXyXyXyXi &XrXeXeXd.yXyXyXyXyXyXyXyXyXyXyXyX",
"yXyXyXyXyXyXyXyXyXyXyXyXi &XrXeXrXoX& yXyXyXyXyXyXyXyXyXyXyX",
"yXyXyXyXyXyXyXyXyXyXyXyXa -XeXeXrXOX* yXyXyXyXyXyXyXyXyXyXyX",
"yXyXyXyXyXyXyXyXyXyXyXyXN 2XeXeXtXL.yXyXyXyXyXyXyXyXyXyXyXyX",
"yXyXyXyXyXyXyXyXyXyXyXyXu.eXeXeXrXd.yXyXyXyXyXyXyXyXyXyXyXyX",
"yXyXyXyXyXyXyXyXyXyXyX$ P.rXeXeX7X| yXyXyXyXyXyXyXyXyXyXyXyX",
"yXyXyXyXyXyXyXyXyXyXyX%.8XeXeXrX+Xu yXyXyXyXyXyXyXyXyXyXyXyX",
"yXyXyXyXyXyXyXyXyXyXN &XrXeXeXtXK.yXyXyXyXyXyXyXyXyXyXyXyXyX",
"yXyXyXyXyXyXyXyXyX..+XrXeXeXeXtXF.  yX# y s b b p yXyXyXyXyX",
"yXyXyXyXyXyXyXa j.2XrXeXeXeXeX1X#.4 Y 5.Q.*X<X,X-Xd.yXyXyXyX",
"yXyXyXyXyXb d.&XeXeXeXeXeXeXeXs.0 L 0.{.qXrXeXeXtX=Xp yXyXyX",
"yXyXyX .J.;XeXrXeXeXeXeXeXeXeXa.z P 0.{.9XrXrXtXtX].= yXyXyX",
"yXyXm |.qXeXeXeXeXeXeXeXeXeXtXK.> k R :.x.h.k.F.k.n yXyXyXyX",
"yXyX] .X>XqXeXeXeXeXeXeXeXeXrX'.+ - q T :.c.B.G.l.s.{ yXyXyX",
"yXyX_ !.XX>XqXeXeXeXeXeXeXeXrX(.2 G / M.XX9XrXrXtXtX;Xn yXyX",
"yXyXB T.{.@X>X9XeXeXeXeXeXeXtXk.8 L <.T.3XrXrXeXeXeXqXX.yXyX",
"yXyXj N.E.{.XX:X4X9XqXwXwXwX;Xv - Z U 6.D.}.*X,X2X8X).u yXyX",
"yXyXg b.Z.R.~. X@X:X>X4X4X#X#.O i 3 1 f ` +.y.i.i.$.= yXyXyX",
"yXyXd 7.b.N.U.W.^. X.X[.V.O.m ' e S ~ m..X6X0X8X5X=Xt.yXyXyX",
"yXyXe ;.7.q.n.A.U.E.W.v.z.v.Y.[ c I 0.^.9XeXeXeXeXtXH.yXyXyX",
"yXyX5 Q ( &.9.b.n.N.A.S.S.S.Z.>.7 S -.S.%XqXeXrXrX8Xt.yXyXyX",
"yXyX, J U r =.4.0.w.r.b.b.b.e.8.h ; e V @.p.f.j.g.o.yXyXyXyX",
"yXyXyX6 Z ; E ) ,.<.3.3.3.3.2.W 9 H 1.D._.I.L.P./.| yXyXyXyX",
"yXyXyXyXo . 5 K U ! ^ / / ^ ! t l I b.$XrXtXtXtXtXk.yXyXyXyX",
"yXyXyXyXyXyXyX- < w x C D F H A < 7 *.C.#X7X0XqX,X..yXyXyXyX",
"yXyXyXyXyXyXyXyXyXyXyXyXo @ - : - . X % s } o.$.N yXyXyXyXyX",
"yXyXyXyXyXyXyXyXyXyXyXyXyXyXyXyXyXyXyXyXyXyXyXyXyXyXyXyXyXyX"
};
