/* XPM */
static char *fire[] = {
/* columns rows colors chars-per-pixel */
"32 32 66 1 ",
"  c #F26F59",
". c #F36F5A",
"X c #F36F5B",
"o c #F27059",
"O c #F37059",
"+ c #F37159",
"@ c #F3705A",
"# c #F3715A",
"$ c #F3705B",
"% c #F3715B",
"& c #F3725A",
"* c #F3735A",
"= c #F4705A",
"- c #F4715A",
"; c #F4715B",
": c #F4795A",
"> c #F47A5A",
", c #F47B5A",
"< c #F47C5A",
"1 c #F57C5A",
"2 c #F57D5A",
"3 c #F67D5A",
"4 c #F57F5A",
"5 c #F5805A",
"6 c #F5815A",
"7 c #F5835A",
"8 c #F6865A",
"9 c #F6875A",
"0 c #F6885A",
"q c #F68C5B",
"w c #F7915B",
"e c #F7945B",
"r c #F8995A",
"t c #F8985B",
"y c #F89B5B",
"u c #F99D5B",
"i c #F9A15B",
"p c #F9A25B",
"a c #F9A35B",
"s c #F9A45B",
"d c #FAA55B",
"f c #FAA75B",
"g c #FBA55C",
"h c #FAA95B",
"j c #FAAB5B",
"k c #FAAC5B",
"l c #FBAF5B",
"z c #FBB15B",
"x c #FBB35B",
"c c #FCB65B",
"v c #FCB95B",
"b c #FCBA5B",
"n c #FCBA5C",
"m c #FDBD5C",
"M c #FDBE5C",
"N c #FDC25C",
"B c #FDC35C",
"V c #FDC45C",
"C c #FEC75C",
"Z c #FEC95B",
"A c #FEC95C",
"S c #FECA5C",
"D c #FFCE5C",
"F c #FFCF5C",
"G c #FFD15C",
"H c None",
/* pixels */
"HHHHHHHHHHHHHHHHHHHHHHHHHHHHHHHH",
"HHHHHHHHHHHHHHHH$@@HHHHHHHHHHHHH",
"HHHHHHHHHHHHHHH@@@HHHHHHHHHHHHHH",
"HHHHHHHHHHHHHH@@@@HHHHHHHHHHHHHH",
"HHHHHHHHHHHH-@@@@@HHHHHHHHHHHHHH",
"HHHHHHHHHHH=@@@@@@HHHHHHHHHHHHHH",
"HHHHHHHHHHH@@@@@@@#HHHHHHHHHHHHH",
"HHHHHHHHHH@@@@@@@@@HHHHHHHHHHHHH",
"HHHHHHHHHH@@@@@@@@@HHHHHHHHHHHHH",
"HHHHHHHHH@@@@@@@@@@#HHHHHHHHHHHH",
"HHHHHHHHH@@@@@@@@@@@HHHHHHHHHHHH",
"HHHHHH@HH@@@@@@@@@@@@HHHHHHHHHHH",
"HHHHHH@OH@@@@@@@@@@@@ HHHH+HHHHH",
"HHHHH@@@H@@@@@@,@@@@@@HHHH@HHHHH",
"HHHHH@@@@@@@@@ui@@@@@@XHH$@HHHHH",
"HHHHH@@@@@@@@eGs@@@@@@@HH@@@HHHH",
"HHHH.@@@@@@@&CGv@@@@@@@HH@@@HHHH",
"HHHH@@@@@@@@wGGG6@@@@@@@@@@@HHHH",
"HHHH@@@@@@@@cGGGk@@@@@@@@@@.HHHH",
"HHHH@@@@@@@@MGGGG9@@@@@@@@@@HHHH",
"HHHH=@@@@@@@BGGGGN*@@@@@@@@@HHHH",
"HHHHo@@@@@28BGGGGGi@@@@@@@@.HHHH",
"HHHHH@@@@@xfhGGGGGF5@8@@@@@$HHHH",
"HHHHH@@@@4GDdGGGGGGj@y0@@@@HHHHH",
"HHHHH#@@@wGGDGGGGGGA&pi@@@@HHHHH",
"HHHHHHX@@iGGGGGGGGGG7ka@@@@HHHHH",
"HHHHHHH@@tGGGGGGGGGGqDt@@@HHHHHH",
"HHHHHHH;@6GGGGGGGGGGnG1@@%HHHHHH",
"HHHHHHHH-@zGGGGGGGGGGl@@@HHHHHHH",
"HHHHHHHHH$>VGGGGGGGGC:@#HHHHHHHH",
"HHHHHHHHHHH3mGGGGGGN<@HHHHHHHHHH",
"HHHHHHHHHHHHHgbSZnr&.HHHHHHHHHHH"
};
